<svg width="132" height="101" viewBox="0 0 832 201" fill="none" xmlns="http://www.w3.org/2000/svg">
<path fill-rule="evenodd" clip-rule="evenodd" d="M31.6183 0L38.4603 15.9652L106.884 84.7147L54.101 137.498L25.7542 116.645L20.5407 121.858L45.3034 146.295L14.0243 181.484C10.4403 180.182 6.20394 180.833 3.59824 183.765C-0.311391 187.349 -0.311391 193.54 3.59824 197.449C7.18224 201.033 13.3727 201.033 17.2823 197.449C20.2148 194.517 20.8663 190.607 19.5634 187.023L54.4266 155.744L79.1894 180.507L84.403 175.293L63.5498 146.621L116.333 93.8379L169.116 146.621L148.263 175.293L153.477 180.507L177.914 155.744L213.103 187.023C211.8 190.607 212.451 194.517 215.384 197.449C218.968 201.033 225.158 201.033 229.068 197.449C232.977 193.54 232.977 187.349 229.068 183.765C226.135 180.833 222.226 180.181 218.642 181.484L187.363 146.295L212.125 121.858L206.912 116.645L178.565 137.498L125.456 84.7147L194.206 15.9652L201.048 0L184.757 6.84203L116.333 75.2659L47.5835 6.84203L31.6183 0Z" fill="white"/>
</svg>
