<svg xmlns="http://www.w3.org/2000/svg" width="44" height="44" viewBox="0 0 24 24">
  <path fill-rule="evenodd" clip-rule="evenodd" d="M12 .298C5.37 .298 0 5.675 0 12.316c0 5.43 3.438 10.04 8.207 11.668.6.11.82-.258.82-.577 0-.285-.01-1.04-.015-2.04-3.34.725-4.042-1.61-4.042-1.61C3.83 18.076 3.14 17.82 3.14 17.82c-1.09-.745.083-.73.083-.73 1.206.086 1.838 1.236 1.838 1.236 1.07 1.834 2.806 1.305 3.488.997.108-.776.418-1.305.76-1.605-2.665-.3-5.466-1.333-5.466-5.93 0-1.31.465-2.378 1.235-3.218-.135-.302-.54-1.523.105-3.176 0 0 1.005-.322 3.3 1.23A11.576 11.576 0 0 1 12 5.48c1.04.004 2.085.14 3.065.408 2.29-1.552 3.295-1.23 3.295-1.23.645 1.653.24 2.874.12 3.176.765.84 1.23 1.907 1.23 3.218 0 4.61-2.805 5.625-5.475 5.92.43.373.81 1.103.81 2.223 0 1.605-.015 2.896-.015 3.286 0 .318.21.692.825.576C20.565 22.35 24 17.74 24 12.315 24 5.675 18.63.298 12 .298z" fill="#000"/>
</svg>
