<svg xmlns="http://www.w3.org/2000/svg" viewBox="0 0 200 30">
  <path d="M17.5,12.5a4.37,4.37,0,0,0,4.37,4.37H42.5a4.75,4.75,0,0,0,4.75-4.75A5.31,5.31,0,0,0,41.88,7.13H38.75L37.5,2.5A3.75,3.75,0,0,0,33.12,0a3.63,3.63,0,0,0-1.12.19,3.75,3.75,0,0,0-3.12-1.56A3.63,3.63,0,0,0,24.38,0a3.19,3.19,0,0,0-4.37,1.37,3.92,3.92,0,0,0-4.37-1.37,3.63,3.63,0,0,0-3.12,1.56A3.75,3.75,0,0,0,12.5,2.5a4.69,4.69,0,0,0,2.5,1.25A5.31,5.31,0,0,0,12.5,7.13,4.75,4.75,0,0,0,7.75,12.5H5A4.37,4.37,0,0,0,9.37,16.88H22.5A4.75,4.75,0,0,0,27.25,12.5a5.31,5.31,0,0,0-5.62-5.62H17.5Z" fill="#FFFFFF" rx="6" ry="6" />
</svg>
