<svg xmlns="http://www.w3.org/2000/svg" viewBox="0 0 100 40">
  <path d="M33.85,9.72a4.14,4.14,0,0,0,4.14,4.14h20.37a4.49,4.49,0,0,0,4.48-4.48,5.05,5.05,0,0,0-4.99-5.15H53.86l-1.87-5.41a4.14,4.14,0,0,0-7.65,0,4,4,0,0,0-1.22.2A4.14,4.14,0,0,0,41.8,0a3.6,3.6,0,0,0-4.66,2.13,4.23,4.23,0,0,0-3.48-1.85,4.14,4.14,0,0,0-4.14,4.14A4.56,4.56,0,0,0,30.92,6.22a5.06,5.06,0,0,0-2.07-.43A4.65,4.65,0,0,0,23.2,7.83a5.05,5.05,0,0,0-4.48-2.13,4.49,4.49,0,0,0-4.48,4.48,4.86,4.86,0,0,0,2.35,4.13,5.39,5.39,0,0,0-.27,1.62,5.06,5.06,0,0,0,5.05,5.05h20.37A4.14,4.14,0,0,0,33.85,9.72Z" fill="#FFFFFF" rx="6" ry="6" />
</svg>
